<svg width="26" height="23" viewBox="0 0 26 23" fill="none" xmlns="http://www.w3.org/2000/svg">
<path d="M2.5 18C2.25 17.875 2.125 17.625 2.125 17.5V2.625L0.375 2.375V19.375L8.5 20.625L2.5 18Z" fill="#A45FE6"/>
<path d="M1.625 22.875L9 21.75L1.625 20.625V22.875Z" fill="#A45FE6"/>
<path d="M3.25 2.125V17.125L12.25 20.875V4L3.25 0.125V2.125Z" fill="#A45FE6"/>
<path d="M22.375 2.125V0.125L13.375 3.875V20.875L22.375 17.125V2.125ZM20.125 14.625L16 16.375C15.875 16.375 15.875 16.375 15.75 16.375C15.5 16.375 15.375 16.25 15.25 16C15.125 15.75 15.25 15.375 15.5 15.25L19.625 13.5C19.875 13.375 20.25 13.5 20.375 13.875C20.5 14.25 20.375 14.625 20.125 14.625ZM20.125 11.375L16 13.125C15.875 13.125 15.875 13.125 15.75 13.125C15.5 13.125 15.375 13 15.25 12.75C15.125 12.5 15.25 12.125 15.5 12L19.625 10.25C19.875 10.125 20.25 10.25 20.375 10.5C20.5 10.875 20.375 11.25 20.125 11.375ZM20.125 8L16 9.75C15.875 9.75 15.875 9.75 15.75 9.75C15.5 9.75 15.375 9.625 15.25 9.375C15.125 9.125 15.25 8.75 15.5 8.625L19.625 6.875C19.875 6.75 20.25 6.875 20.375 7.25C20.5 7.625 20.375 8 20.125 8ZM20.125 4.75L16 6.5C15.875 6.5 15.875 6.5 15.75 6.5C15.5 6.5 15.375 6.375 15.25 6.125C15.125 5.875 15.25 5.5 15.5 5.375L19.625 3.625C19.875 3.5 20.25 3.625 20.375 3.875C20.5 4.25 20.375 4.625 20.125 4.75Z" fill="#A45FE6"/>
<path d="M24 22.875V20.625L16.625 21.75L24 22.875Z" fill="#A45FE6"/>
<path d="M23.5 2.625V17.5C23.5 17.75 23.375 17.875 23.125 18L17 20.625L25.125 19.375V2.375L23.5 2.625Z" fill="#A45FE6"/>
</svg>
