<svg width="30" height="31" viewBox="0 0 30 31" fill="none" xmlns="http://www.w3.org/2000/svg">
<path d="M15 0.771179C6.71631 0.771179 0 7.48991 0 15.7712C0 24.0573 6.71631 30.7712 15 30.7712C23.2837 30.7712 30 24.0573 30 15.7712C30 7.48991 23.2837 0.771179 15 0.771179ZM15 7.4244C16.403 7.4244 17.5403 8.56174 17.5403 9.96473C17.5403 11.3677 16.403 12.505 15 12.505C13.597 12.505 12.4597 11.3677 12.4597 9.96473C12.4597 8.56174 13.597 7.4244 15 7.4244ZM18.3871 22.7873C18.3871 23.1881 18.0621 23.5131 17.6613 23.5131H12.3387C11.9379 23.5131 11.6129 23.1881 11.6129 22.7873V21.3357C11.6129 20.9349 11.9379 20.6099 12.3387 20.6099H13.0645V16.7389H12.3387C11.9379 16.7389 11.6129 16.4139 11.6129 16.0131V14.5615C11.6129 14.1607 11.9379 13.8357 12.3387 13.8357H16.2097C16.6105 13.8357 16.9355 14.1607 16.9355 14.5615V20.6099H17.6613C18.0621 20.6099 18.3871 20.9349 18.3871 21.3357V22.7873Z" fill="#A45FE6"/>
</svg>
