<svg width="30" height="26" viewBox="0 0 30 26" fill="none" xmlns="http://www.w3.org/2000/svg">
<path d="M27.8571 0.5H2.13616C0.957589 0.5 0 1.30915 0 2.30246V23.6975C0 24.6908 0.957589 25.5 2.13616 25.5H27.8571C29.0357 25.5 30 24.6908 30 23.6975V2.30246C30 1.30915 29.0357 0.5 27.8571 0.5ZM9.06696 21.9286H4.62054V9.99777H9.07366V21.9286H9.06696ZM6.84375 8.3683C5.41741 8.3683 4.26562 7.4029 4.26562 6.21987C4.26562 5.03683 5.41741 4.07143 6.84375 4.07143C8.26339 4.07143 9.42187 5.03683 9.42187 6.21987C9.42187 7.40848 8.27009 8.3683 6.84375 8.3683ZM25.7344 21.9286H21.2879V16.125C21.2879 14.7411 21.2545 12.9609 18.9777 12.9609C16.6607 12.9609 16.3058 14.4676 16.3058 16.0246V21.9286H11.8594V9.99777H16.125V11.6272H16.1853C16.7812 10.6897 18.2344 9.70201 20.3973 9.70201C24.8973 9.70201 25.7344 12.1741 25.7344 15.3884V21.9286Z" fill="white"/>
</svg>
