<svg width="35" height="25" viewBox="0 0 35 25" fill="none" xmlns="http://www.w3.org/2000/svg">
<path d="M34.3369 8.25521C34.6035 8.05339 35 8.24219 35 8.5612V21.875C35 23.6003 33.5303 25 31.7188 25H3.28125C1.46973 25 0 23.6003 0 21.875V8.56771C0 8.24219 0.389648 8.0599 0.663086 8.26172C2.19434 9.39453 4.22461 10.8333 11.1973 15.6576C12.6396 16.6602 15.0732 18.7695 17.5 18.7565C19.9404 18.776 22.4219 16.6211 23.8096 15.6576C30.7822 10.8333 32.8057 9.38802 34.3369 8.25521ZM17.5 16.6667C19.0859 16.6927 21.3691 14.7656 22.5176 13.9714C31.5889 7.70182 32.2793 7.15495 34.3711 5.59245C34.7676 5.29948 35 4.84375 35 4.36198V3.125C35 1.39974 33.5303 0 31.7188 0H3.28125C1.46973 0 0 1.39974 0 3.125V4.36198C0 4.84375 0.232422 5.29297 0.628906 5.59245C2.7207 7.14844 3.41113 7.70182 12.4824 13.9714C13.6309 14.7656 15.9141 16.6927 17.5 16.6667Z" fill="white"/>
</svg>
