<svg width="30" height="26" viewBox="0 0 30 26" fill="none" xmlns="http://www.w3.org/2000/svg">
<path d="M3.24798 8.63508L9.3871 22.6472C5.09274 20.9133 2.13508 17.244 2.13508 13C2.13508 11.4425 2.53427 9.97077 3.24798 8.63508ZM23.6855 12.4607C23.6855 11.1351 23.1169 10.2177 22.627 9.50202C21.9738 8.61996 21.3629 7.86895 21.3629 6.9869C21.3629 5.99899 22.2581 5.08165 23.5222 5.08165C23.5766 5.08165 23.631 5.08669 23.6915 5.09173C21.3992 3.34274 18.3508 2.27419 15 2.27419C10.506 2.27419 6.5504 4.19456 4.24597 7.10786C4.54839 7.11794 4.83266 7.12298 5.0746 7.12298C6.41734 7.12298 8.50403 6.9869 8.50403 6.9869C9.1996 6.95161 9.27823 7.80343 8.58871 7.86895C8.58871 7.86895 7.89314 7.93448 7.11895 7.96976L11.8065 19.5827L14.625 12.5464L12.623 7.96976C11.9274 7.93448 11.2742 7.86895 11.2742 7.86895C10.5786 7.83367 10.6633 6.95161 11.3528 6.9869C11.3528 6.9869 13.4758 7.12298 14.7399 7.12298C16.0827 7.12298 18.1694 6.9869 18.1694 6.9869C18.8649 6.95161 18.9435 7.80343 18.254 7.86895C18.254 7.86895 17.5585 7.93448 16.7843 7.96976L21.4355 19.497L22.7177 15.9234C23.2621 14.4415 23.6855 13.378 23.6855 12.4607ZM15.2238 13.9375L11.3649 23.2873C12.5202 23.5696 13.7359 23.7258 15 23.7258C16.5 23.7258 17.9335 23.5091 19.2702 23.1159C19.2339 23.0706 19.2036 23.0202 19.1794 22.9698L15.2238 13.9375ZM26.2923 7.85383C26.3468 8.19657 26.377 8.55948 26.377 8.95766C26.377 10.0464 26.1351 11.2661 25.3972 12.7984L21.4657 22.2692C25.2944 20.4093 27.8649 16.9567 27.8649 13C27.8649 11.1351 27.2964 9.38105 26.2923 7.85383ZM30 13C30 19.8952 23.2681 25.5 15 25.5C6.72581 25.5 0 19.8901 0 13C0 6.10484 6.72581 0.5 15 0.5C23.2681 0.5 30 6.10484 30 13ZM29.3105 13C29.3105 6.42238 22.8871 1.0746 15 1.0746C7.10685 1.0746 0.689516 6.42238 0.689516 13C0.689516 19.5776 7.1129 24.9254 15 24.9254C22.8931 24.9254 29.3105 19.5776 29.3105 13Z" fill="white"/>
</svg>
