<svg width="19" height="18" viewBox="0 0 19 18" fill="none" xmlns="http://www.w3.org/2000/svg">
<path d="M18.0807 13.1465C18.4123 13.4639 18.4123 13.9772 18.0807 14.2947L15.2863 16.9625C14.9547 17.2799 14.4184 17.2799 14.0867 16.9625L9.50004 12.5319L4.90629 16.9625C4.57464 17.2799 4.03835 17.2799 3.70669 16.9625L0.919394 14.2879C0.587741 13.9705 0.587741 13.4572 0.919394 13.1397L5.54843 8.7497L0.919394 4.3529C0.587741 4.03547 0.587741 3.52217 0.919394 3.20474L3.71375 0.53019C4.0454 0.212756 4.58169 0.212756 4.91335 0.53019L9.50004 4.96751L14.0938 0.536944C14.4254 0.21951 14.9617 0.21951 15.2934 0.536944L18.0877 3.21149C18.4194 3.52893 18.4194 4.04222 18.0877 4.35966L13.4517 8.7497L18.0807 13.1465Z" fill="black"/>
</svg>
