<svg width="100" height="100" viewBox="0 0 100 100" fill="none" xmlns="http://www.w3.org/2000/svg">
<path opacity="0.8" d="M24.75 54.6667C24.75 54.6667 37.5 54.1667 50 58.3333C62.5 62.5 74.2917 54.625 74.2917 54.625" stroke="#96A5B4" stroke-width="1.5" stroke-linecap="round" stroke-linejoin="round"/>
<path d="M33.9996 91.6668C16.583 91.6668 13.083 81.1252 18.7496 68.2918L36.458 28.0835H35.208C33.9083 28.0868 32.6207 27.8339 31.4187 27.3393C30.2168 26.8447 29.1242 26.1181 28.2032 25.201C27.2823 24.2839 26.5511 23.1944 26.0514 21.9945C25.5518 20.7947 25.2935 19.5082 25.2913 18.2085C25.2913 12.7918 29.708 8.3335 35.1663 8.3335H64.7913C67.5413 8.3335 69.9996 9.4585 71.7913 11.2502C74.1246 13.5835 75.2913 17.0002 74.4163 20.6252C73.2913 25.1252 68.9579 28.0835 64.3329 28.0835H63.6663L81.2496 68.3335C86.8746 81.1668 83.2079 91.6668 65.9579 91.6668H33.9996Z" stroke="white" stroke-width="1.5" stroke-linecap="round" stroke-linejoin="round"/>
</svg>
