<svg width="165" height="83" viewBox="0 0 165 83" fill="none" xmlns="http://www.w3.org/2000/svg">
<rect x="3.5" y="3.5" width="158" height="76" fill="white" stroke="#00BDAA" stroke-width="7"/>
<path d="M11.6 13.12H51.76V24.32H23.2V36.88H48.48V48.08H23.2V60.8H52.88V72H11.6V13.12ZM69.1213 37.04L70.1613 46.64L69.9213 45.2C70.9346 43.12 72.3213 41.36 74.0813 39.92C75.8413 38.4267 77.5746 37.28 79.2813 36.48C81.0413 35.68 82.3746 35.28 83.2813 35.28L82.7213 46.48C80.1079 46.16 77.8679 46.5867 76.0013 47.76C74.1346 48.9333 72.6946 50.48 71.6813 52.4C70.6679 54.32 70.1613 56.2933 70.1613 58.32V72H59.0413V37.04H69.1213ZM87.8538 37.04H99.0538V72H87.8538V37.04ZM87.6138 24.64C87.6138 22.9867 88.2538 21.6267 89.5338 20.56C90.8671 19.4933 92.2804 18.96 93.7738 18.96C95.2671 18.96 96.6271 19.4933 97.8538 20.56C99.1338 21.6267 99.7738 22.9867 99.7738 24.64C99.7738 26.2933 99.1338 27.6533 97.8538 28.72C96.6271 29.7333 95.2671 30.24 93.7738 30.24C92.2804 30.24 90.8671 29.7333 89.5338 28.72C88.2538 27.6533 87.6138 26.2933 87.6138 24.64ZM116.748 37.04L117.628 43.28L117.468 42.72C118.695 40.5333 120.428 38.7733 122.668 37.44C124.908 36.0533 127.655 35.36 130.908 35.36C134.215 35.36 136.961 36.3467 139.148 38.32C141.388 40.24 142.535 42.7467 142.588 45.84V72H131.388V50C131.335 48.4533 130.908 47.2267 130.108 46.32C129.361 45.36 128.081 44.88 126.268 44.88C124.561 44.88 123.068 45.44 121.788 46.56C120.508 47.68 119.521 49.2 118.828 51.12C118.135 53.04 117.788 55.2533 117.788 57.76V72H106.588V37.04H116.748Z" fill="black"/>
<path d="M150 68V14H62" stroke="#A1DD70" stroke-width="7" stroke-linecap="square"/>
</svg>
