<svg width="22" height="23" viewBox="0 0 22 23" fill="none" xmlns="http://www.w3.org/2000/svg">
<path d="M11 2.48794C16.0987 2.48794 20.2258 6.61422 20.2258 11.7137C20.2258 16.8125 16.0995 20.9396 11 20.9396C5.90128 20.9396 1.77419 16.8133 1.77419 11.7137C1.77419 6.61502 5.90048 2.48794 11 2.48794ZM11 0.713745C4.92485 0.713745 0 5.6386 0 11.7137C0 17.7889 4.92485 22.7137 11 22.7137C17.0751 22.7137 22 17.7889 22 11.7137C22 5.6386 17.0751 0.713745 11 0.713745ZM11 3.19762C6.29666 3.19762 2.48387 7.0104 2.48387 11.7137C2.48387 16.4171 6.29666 20.2299 11 20.2299C15.7033 20.2299 19.5161 16.4171 19.5161 11.7137C19.5161 7.0104 15.7033 3.19762 11 3.19762ZM11 5.14923C11.8819 5.14923 12.5968 5.86414 12.5968 6.746C12.5968 7.62787 11.8819 8.34278 11 8.34278C10.1181 8.34278 9.40323 7.62787 9.40323 6.746C9.40323 5.86414 10.1181 5.14923 11 5.14923ZM16.2224 9.49702C14.9489 9.7977 13.7602 10.0625 12.5791 10.1981C12.6168 14.679 13.1249 15.6561 13.6896 17.1007C13.85 17.5114 13.6471 17.9744 13.2364 18.1348C12.8256 18.2952 12.3627 18.0924 12.2022 17.6816C11.8161 16.6922 11.4444 15.8792 11.2149 14.1976H10.7852C10.5561 15.8765 10.1849 16.6907 9.79781 17.6816C9.63746 18.0921 9.17462 18.2953 8.76367 18.1348C8.35295 17.9744 8.15007 17.5114 8.3105 17.1007C8.87438 15.6573 9.38322 14.6815 9.42101 10.1981C8.23989 10.0625 7.05122 9.79775 5.77766 9.49702C5.39621 9.40694 5.15998 9.02473 5.25006 8.64324C5.34014 8.26174 5.72231 8.02555 6.10385 8.11564C10.3923 9.12821 11.6164 9.12617 15.8963 8.11564C16.2777 8.0256 16.66 8.26174 16.7501 8.64324C16.8401 9.02473 16.6038 9.40698 16.2224 9.49702Z" fill="white"/>
</svg>
