<svg width="38" height="31" viewBox="0 0 38 31" fill="none" xmlns="http://www.w3.org/2000/svg">
<path d="M38 14.2764C38 12.8918 37.1457 11.6959 35.8889 11.0467V2.08945C35.8889 1.57676 35.4284 0.213867 33.7778 0.213867C33.3081 0.213867 32.8416 0.35332 32.4597 0.625195L26.85 4.61133C24.0324 6.61172 20.4949 7.71387 16.8889 7.71387H4.22222C1.8901 7.71387 0 9.39258 0 11.4639V17.0889C0 19.1602 1.8901 20.8389 4.22222 20.8389H6.44549C6.35378 21.4529 6.30167 22.0775 6.30167 22.7139C6.30167 25.0441 6.91257 27.2461 7.98792 29.2143C8.33031 29.8406 9.07778 30.2139 9.86153 30.2139H14.7619C16.4805 30.2139 17.5123 28.4654 16.4706 27.2514C15.3887 25.9904 14.7455 24.4178 14.7455 22.7139C14.7455 22.0629 14.8523 21.4371 15.0364 20.8389H16.8889C20.4949 20.8389 24.0324 21.941 26.8494 23.9414L32.459 27.9275C32.8331 28.1934 33.2979 28.3385 33.7771 28.3389C35.4211 28.3389 35.8882 27.0041 35.8882 26.4639V17.5066C37.1457 16.8568 38 15.6609 38 14.2764ZM31.6667 22.5627L29.4863 21.0135C25.9238 18.4822 21.4489 17.0889 16.8889 17.0889V11.4639C21.4489 11.4639 25.9238 10.0705 29.4863 7.53926L31.6667 5.99004V22.5627Z" fill="#A45FE6"/>
</svg>
