<svg width="30" height="31" viewBox="0 0 30 31" fill="none" xmlns="http://www.w3.org/2000/svg">
<path d="M27.5063 18.3693L29.9684 6.18178C30.1462 5.30182 29.5516 4.46387 28.7495 4.46387H8.29208L7.81469 1.83828C7.69573 1.18385 7.18386 0.713867 6.59005 0.713867H1.25C0.559636 0.713867 0 1.34346 0 2.12012V3.05762C0 3.83428 0.559636 4.46387 1.25 4.46387H4.88974L8.54849 24.587C7.67318 25.1533 7.08333 26.2152 7.08333 27.4326C7.08333 29.2448 8.38917 30.7139 10 30.7139C11.6108 30.7139 12.9167 29.2448 12.9167 27.4326C12.9167 26.5142 12.5809 25.6845 12.0404 25.0889H22.9595C22.4191 25.6845 22.0833 26.5142 22.0833 27.4326C22.0833 29.2448 23.3892 30.7139 25 30.7139C26.6108 30.7139 27.9167 29.2448 27.9167 27.4326C27.9167 26.1335 27.2454 25.0108 26.2719 24.4792L26.5593 23.0568C26.737 22.1768 26.1425 21.3389 25.3404 21.3389H11.3603L11.0194 19.4639H26.2873C26.871 19.4639 27.3769 19.0095 27.5063 18.3693Z" fill="#A45FE6"/>
</svg>
