<svg width="30" height="31" viewBox="0 0 30 31" fill="none" xmlns="http://www.w3.org/2000/svg">
<path d="M30 15.2139C30 23.4982 23.2843 30.2139 15 30.2139C6.71571 30.2139 0 23.4982 0 15.2139C0 6.92957 6.71571 0.213867 15 0.213867C23.2843 0.213867 30 6.92957 30 15.2139ZM13.265 23.1562L24.394 12.0272C24.7719 11.6493 24.7719 11.0365 24.394 10.6586L23.0254 9.29008C22.6475 8.91211 22.0348 8.91211 21.6568 9.29008L12.5806 18.3662L8.34321 14.1287C7.9653 13.7508 7.35254 13.7508 6.97458 14.1287L5.60601 15.4973C5.2281 15.8752 5.2281 16.488 5.60601 16.8659L11.8963 23.1562C12.2743 23.5341 12.887 23.5341 13.265 23.1562Z" fill="#A45FE6"/>
</svg>
