<svg width="24" height="24" viewBox="0 0 24 24" fill="none" xmlns="http://www.w3.org/2000/svg">
<path d="M23.9998 12C23.9998 18.1373 18.8017 23.1125 12.3896 23.1125C5.97737 23.1125 0.779297 18.1373 0.779297 12C0.779297 5.86272 5.97737 0.887512 12.3896 0.887512C18.8017 0.887512 23.9998 5.86272 23.9998 12ZM11.0466 17.884L19.6607 9.63922C19.9532 9.35926 19.9532 8.9053 19.6607 8.62534L18.6014 7.61146C18.3089 7.33145 17.8346 7.33145 17.542 7.61146L10.5169 14.3353L7.23708 11.1961C6.94458 10.9161 6.47029 10.9161 6.17774 11.1961L5.11845 12.21C4.82594 12.4899 4.82594 12.9439 5.11845 13.2238L9.98727 17.8839C10.2798 18.1639 10.7541 18.1639 11.0466 17.884Z" fill="white"/>
</svg>
