<svg width="18" height="26" viewBox="0 0 18 26" fill="none" xmlns="http://www.w3.org/2000/svg">
<path d="M13.25 2.91504V1.79004H10.5C10.25 1.79004 10.125 1.66504 10 1.54004C9.5 0.665039 8 0.665039 7.5 1.54004C7.375 1.66504 7.25 1.79004 7 1.79004H4.125V2.91504V4.04004H13.25V2.91504Z" fill="#A45FE6"/>
<path d="M16.25 3.41504H14.25V4.54004C14.25 4.91504 14 5.16504 13.625 5.16504H3.625C3.25 5.16504 3 4.91504 3 4.66504V3.41504H1.125C0.75 3.41504 0.375 3.79004 0.375 4.16504V24.665C0.375 25.04 0.75 25.415 1.125 25.415H16.375C16.75 25.415 17.125 25.04 17.125 24.665V4.29004C17 3.79004 16.75 3.41504 16.25 3.41504ZM4.875 21.04C4.875 21.29 4.625 21.665 4.25 21.665H3C2.75 21.665 2.5 21.415 2.5 21.04V19.79C2.5 19.415 2.75 19.165 3 19.165H4.25C4.5 19.165 4.875 19.415 4.875 19.79V21.04ZM4.875 17.04C4.875 17.415 4.625 17.665 4.25 17.665H3C2.75 17.665 2.5 17.415 2.5 17.04V15.79C2.5 15.415 2.75 15.165 3 15.165H4.25C4.5 15.165 4.875 15.415 4.875 15.79V17.04ZM4.875 13.165C4.875 13.54 4.625 13.79 4.25 13.79H3C2.75 13.79 2.5 13.54 2.5 13.165V11.915C2.5 11.54 2.75 11.29 3 11.29H4.25C4.5 11.29 4.875 11.54 4.875 11.915V13.165ZM4.875 9.16504C4.875 9.54004 4.625 9.79004 4.25 9.79004H3C2.75 9.79004 2.5 9.54004 2.5 9.16504V7.91504C2.5 7.66504 2.875 7.41504 3.125 7.41504H4.375C4.625 7.41504 5 7.66504 5 8.04004V9.16504H4.875ZM14.75 20.915H6.125V19.79H14.75V20.915ZM14.75 17.04H6.125V15.915H14.75V17.04ZM14.75 13.04H6.125V11.915H14.75V13.04ZM14.75 9.16504H6.125V8.04004H14.75V9.16504Z" fill="#A45FE6"/>
</svg>
