<svg width="30" height="31" viewBox="0 0 30 31" fill="none" xmlns="http://www.w3.org/2000/svg">
<path d="M20.25 5.08203V3.95703H17.5C17.25 3.95703 17.125 3.83203 17 3.70703C16.5 2.83203 15 2.83203 14.5 3.70703C14.375 3.83203 14.25 3.95703 14 3.95703H11.125V5.08203V6.20703H20.25V5.08203Z" fill="#A45FE6"/>
<path d="M23.25 5.58203H21.25V6.70703C21.25 7.08203 21 7.33203 20.625 7.33203H10.625C10.25 7.33203 10 7.08203 10 6.83203V5.58203H8.125C7.75 5.58203 7.375 5.95703 7.375 6.33203V26.832C7.375 27.207 7.75 27.582 8.125 27.582H23.375C23.75 27.582 24.125 27.207 24.125 26.832V6.45703C24 5.95703 23.75 5.58203 23.25 5.58203ZM11.875 23.207C11.875 23.457 11.625 23.832 11.25 23.832H10C9.75 23.832 9.5 23.582 9.5 23.207V21.957C9.5 21.582 9.75 21.332 10 21.332H11.25C11.5 21.332 11.875 21.582 11.875 21.957V23.207ZM11.875 19.207C11.875 19.582 11.625 19.832 11.25 19.832H10C9.75 19.832 9.5 19.582 9.5 19.207V17.957C9.5 17.582 9.75 17.332 10 17.332H11.25C11.5 17.332 11.875 17.582 11.875 17.957V19.207ZM11.875 15.332C11.875 15.707 11.625 15.957 11.25 15.957H10C9.75 15.957 9.5 15.707 9.5 15.332V14.082C9.5 13.707 9.75 13.457 10 13.457H11.25C11.5 13.457 11.875 13.707 11.875 14.082V15.332ZM11.875 11.332C11.875 11.707 11.625 11.957 11.25 11.957H10C9.75 11.957 9.5 11.707 9.5 11.332V10.082C9.5 9.83203 9.875 9.58203 10.125 9.58203H11.375C11.625 9.58203 12 9.83203 12 10.207V11.332H11.875ZM21.75 23.082H13.125V21.957H21.75V23.082ZM21.75 19.207H13.125V18.082H21.75V19.207ZM21.75 15.207H13.125V14.082H21.75V15.207ZM21.75 11.332H13.125V10.207H21.75V11.332Z" fill="#A45FE6"/>
</svg>
