<svg width="19" height="19" viewBox="0 0 19 19" fill="none" xmlns="http://www.w3.org/2000/svg">
<path d="M10.7593 13.6115L8.63073 14.3524L9.40475 12.3151C9.79175 12.1299 10.2755 12.1299 10.6625 12.4077C10.9528 12.7781 10.9528 13.2411 10.7593 13.6115ZM17.2417 7.49967L11.7268 12.7781C11.63 12.4077 11.4365 12.1299 11.243 11.8521C10.9528 11.5743 10.6625 11.4816 10.2755 11.389L15.7904 6.11061C16.1774 5.7402 16.8547 5.7402 17.2417 6.11061C17.4352 6.29582 17.5319 6.48103 17.5319 6.75884C17.5319 7.03665 17.4352 7.31447 17.2417 7.49967ZM3.88987 1.2026H6.01842C6.21192 1.2026 6.30868 1.10999 6.40543 1.01739C6.79244 0.369162 7.95346 0.369162 8.34047 1.01739C8.43722 1.10999 8.53398 1.2026 8.72748 1.2026H10.856V2.03604V2.86947H3.88987V2.03604V1.2026ZM13.8553 18.2417C13.8553 18.5196 13.5651 18.7974 13.2748 18.7974H1.56782C1.27756 18.7974 0.987305 18.5196 0.987305 18.2417V3.05468C0.987305 2.77687 1.27756 2.49906 1.56782 2.49906H3.0191V3.33249C3.0191 3.5177 3.2126 3.70291 3.50286 3.70291H11.3398C11.63 3.70291 11.8235 3.5177 11.8235 3.33249V2.49906H13.2748C13.6618 2.49906 13.8553 2.77687 13.8553 3.05468V6.75884L8.92098 11.4816L8.82423 11.5743C8.72748 11.6669 8.72748 11.6669 8.63073 11.7595L8.34047 12.5003L7.4697 14.8154C7.4697 14.908 7.4697 15.0006 7.4697 15.0932C7.4697 15.1858 7.4697 15.2784 7.56645 15.2784C7.66321 15.371 7.66321 15.371 7.75996 15.371C7.75996 15.371 7.75996 15.371 7.85671 15.371C7.85671 15.371 7.85671 15.371 7.95346 15.371H8.05021L11.1463 14.3524C11.243 14.3524 11.243 14.2598 11.3398 14.1672C11.3398 14.1672 11.4365 14.0746 11.5333 14.0746L13.8553 11.8521V18.2417ZM18.4027 6.29582C18.2092 6.01801 18.1124 5.7402 17.8222 5.46238C17.5319 5.18457 17.2417 5.09197 16.8547 4.99936L16.9514 4.90676C17.3384 4.53634 18.0157 4.53634 18.4027 4.90676C18.7897 5.36978 18.7897 5.9254 18.4027 6.29582Z" fill="white"/>
</svg>
