<svg width="30" height="31" viewBox="0 0 30 31" fill="none" xmlns="http://www.w3.org/2000/svg">
<path d="M16.375 20.8247L13.625 21.8247L14.625 19.0747C15.125 18.8247 15.75 18.8247 16.25 19.1997C16.625 19.6997 16.625 20.3247 16.375 20.8247ZM24.75 12.5747L17.625 19.6997C17.5 19.1997 17.25 18.8247 17 18.4497C16.625 18.0747 16.25 17.9497 15.75 17.8247L22.875 10.6997C23.375 10.1997 24.25 10.1997 24.75 10.6997C25 10.9497 25.125 11.1997 25.125 11.5747C25.125 11.9497 25 12.3247 24.75 12.5747ZM7.5 4.07471H10.25C10.5 4.07471 10.625 3.94971 10.75 3.82471C11.25 2.94971 12.75 2.94971 13.25 3.82471C13.375 3.94971 13.5 4.07471 13.75 4.07471H16.5V5.19971V6.32471H7.5V5.19971V4.07471ZM20.375 27.0747C20.375 27.4497 20 27.8247 19.625 27.8247H4.5C4.125 27.8247 3.75 27.4497 3.75 27.0747V6.57471C3.75 6.19971 4.125 5.82471 4.5 5.82471H6.375V6.94971C6.375 7.19971 6.625 7.44971 7 7.44971H17.125C17.5 7.44971 17.75 7.19971 17.75 6.94971V5.82471H19.625C20.125 5.82471 20.375 6.19971 20.375 6.57471V11.5747L14 17.9497L13.875 18.0747C13.75 18.1997 13.75 18.1997 13.625 18.3247L13.25 19.3247L12.125 22.4497C12.125 22.5747 12.125 22.6997 12.125 22.8247C12.125 22.9497 12.125 23.0747 12.25 23.0747C12.375 23.1997 12.375 23.1997 12.5 23.1997C12.5 23.1997 12.5 23.1997 12.625 23.1997C12.625 23.1997 12.625 23.1997 12.75 23.1997H12.875L16.875 21.8247C17 21.8247 17 21.6997 17.125 21.5747C17.125 21.5747 17.25 21.4497 17.375 21.4497L20.375 18.4497V27.0747ZM26.25 10.9497C26 10.5747 25.875 10.1997 25.5 9.82471C25.125 9.44971 24.75 9.32471 24.25 9.19971L24.375 9.07471C24.875 8.57471 25.75 8.57471 26.25 9.07471C26.75 9.69971 26.75 10.4497 26.25 10.9497Z" fill="#A45FE6"/>
</svg>
