<svg width="24" height="24" viewBox="0 0 24 24" fill="none" xmlns="http://www.w3.org/2000/svg">
<path d="M10.5088 23.0908L8.2958 22.3225C8.06361 22.2443 7.93301 21.9535 7.99831 21.6756L12.9504 1.26358C13.0157 0.985745 13.2588 0.829464 13.491 0.907604L15.704 1.67599C15.9362 1.75413 16.0668 2.04498 16.0015 2.32282L11.0494 22.7349C10.9805 23.0127 10.741 23.1733 10.5088 23.0908ZM6.373 18.2201L7.95115 16.2058C8.11803 15.9931 8.10715 15.6545 7.92213 15.4591L4.63523 11.9992L7.92213 8.53933C8.10715 8.34398 8.12166 8.00537 7.95115 7.79265L6.373 5.77836C6.20974 5.56999 5.93402 5.55697 5.75625 5.75666L0.528417 11.6172C0.343392 11.8212 0.343392 12.1729 0.528417 12.3769L5.75625 18.2418C5.93402 18.4415 6.20974 18.4328 6.373 18.2201ZM18.2436 18.2461L23.4714 12.3812C23.6564 12.1772 23.6564 11.8256 23.4714 11.6215L18.2436 5.75232C18.0694 5.55697 17.7937 5.56565 17.6268 5.77402L16.0487 7.78831C15.8818 8.00103 15.8927 8.33964 16.0777 8.53499L19.3646 11.9992L16.0777 15.4591C15.8927 15.6545 15.8782 15.9931 16.0487 16.2058L17.6268 18.2201C17.7901 18.4328 18.0658 18.4415 18.2436 18.2461Z" fill="white"/>
</svg>
