<svg width="30" height="31" viewBox="0 0 30 31" fill="none" xmlns="http://www.w3.org/2000/svg">
<path d="M0 10.1246V1.82101C0 0.930385 0.716518 0.213867 1.60714 0.213867H9.91071C10.3527 0.213867 10.7143 0.575474 10.7143 1.01744V3.69601C10.7143 4.13797 10.3527 4.49958 9.91071 4.49958H4.28571V10.1246C4.28571 10.5665 3.92411 10.9282 3.48214 10.9282H0.803571C0.361607 10.9282 0 10.5665 0 10.1246ZM19.2857 1.01744V3.69601C19.2857 4.13797 19.6473 4.49958 20.0893 4.49958H25.7143V10.1246C25.7143 10.5665 26.0759 10.9282 26.5179 10.9282H29.1964C29.6384 10.9282 30 10.5665 30 10.1246V1.82101C30 0.930385 29.2835 0.213867 28.3929 0.213867H20.0893C19.6473 0.213867 19.2857 0.575474 19.2857 1.01744ZM29.1964 19.4996H26.5179C26.0759 19.4996 25.7143 19.8612 25.7143 20.3032V25.9282H20.0893C19.6473 25.9282 19.2857 26.2898 19.2857 26.7317V29.4103C19.2857 29.8523 19.6473 30.2139 20.0893 30.2139H28.3929C29.2835 30.2139 30 29.4973 30 28.6067V20.3032C30 19.8612 29.6384 19.4996 29.1964 19.4996ZM10.7143 29.4103V26.7317C10.7143 26.2898 10.3527 25.9282 9.91071 25.9282H4.28571V20.3032C4.28571 19.8612 3.92411 19.4996 3.48214 19.4996H0.803571C0.361607 19.4996 0 19.8612 0 20.3032V28.6067C0 29.4973 0.716518 30.2139 1.60714 30.2139H9.91071C10.3527 30.2139 10.7143 29.8523 10.7143 29.4103Z" fill="#A45FE6"/>
</svg>
