<svg width="30" height="31" viewBox="0 0 30 31" fill="none" xmlns="http://www.w3.org/2000/svg">
<path d="M30 15.7139C30 24 23.2837 30.7139 15 30.7139C6.71631 30.7139 0 24 0 15.7139C0 7.4326 6.71631 0.713867 15 0.713867C23.2837 0.713867 30 7.4326 30 15.7139ZM15 18.7381C13.4634 18.7381 12.2177 19.9837 12.2177 21.5203C12.2177 23.0569 13.4634 24.3026 15 24.3026C16.5366 24.3026 17.7823 23.0569 17.7823 21.5203C17.7823 19.9837 16.5366 18.7381 15 18.7381ZM12.3585 8.73729L12.8072 16.9631C12.8281 17.348 13.1464 17.6494 13.5319 17.6494H16.4681C16.8536 17.6494 17.1719 17.348 17.1928 16.9631L17.6415 8.73729C17.6642 8.32153 17.3332 7.97193 16.9168 7.97193H13.0831C12.6668 7.97193 12.3358 8.32153 12.3585 8.73729Z" fill="#A45FE6"/>
</svg>
