<svg width="24" height="23" viewBox="0 0 24 23" fill="none" xmlns="http://www.w3.org/2000/svg">
<path d="M22.8992 12.1244L15.1586 21.8462C14.4675 22.7142 13.2695 22.1066 13.2695 20.8624V15.3071H7.00336C6.39057 15.3071 5.89757 14.6879 5.89757 13.9183V8.36296C5.89757 7.59332 6.39057 6.97413 7.00336 6.97413H13.2695V1.41881C13.2695 0.180439 14.4629 -0.432961 15.1586 0.435058L22.8992 10.1569C23.3276 10.7008 23.3276 11.5804 22.8992 12.1244ZM8.84635 21.5568V19.2421C8.84635 18.8602 8.59755 18.5477 8.29346 18.5477H4.42318C3.60765 18.5477 2.94878 17.7202 2.94878 16.6959V5.5853C2.94878 4.56104 3.60765 3.73353 4.42318 3.73353H8.29346C8.59755 3.73353 8.84635 3.42104 8.84635 3.03911V0.724397C8.84635 0.342469 8.59755 0.0299821 8.29346 0.0299821H4.42318C1.98121 0.0299821 0 2.5183 0 5.5853V16.6959C0 19.7629 1.98121 22.2513 4.42318 22.2513H8.29346C8.59755 22.2513 8.84635 21.9388 8.84635 21.5568Z" fill="white"/>
</svg>
