<svg width="18" height="26" viewBox="0 0 18 26" fill="none" xmlns="http://www.w3.org/2000/svg">
<path d="M13.1689 8.83496C14.2742 8.83496 15.3342 8.39589 16.1158 7.61433C16.8974 6.83278 17.3364 5.77276 17.3364 4.66748C17.3364 3.5622 16.8974 2.50218 16.1158 1.72063C15.3342 0.939073 14.2742 0.5 13.1689 0.5L4.83399 0.5C3.72935 0.5 2.66995 0.938815 1.88886 1.71991C1.10776 2.50101 0.668946 3.5604 0.668946 4.66504C0.668946 5.76968 1.10776 6.82907 1.88886 7.61017C2.66995 8.39126 3.72935 8.83008 4.83399 8.83008C3.7287 8.83008 2.66869 9.26915 1.88713 10.0507C1.10558 10.8323 0.666505 11.8923 0.666505 12.9976C0.666505 14.1028 1.10558 15.1629 1.88713 15.9444C2.66869 16.726 3.7287 17.165 4.83399 17.165C4.00974 17.1646 3.20385 17.4085 2.51825 17.866C1.83264 18.3236 1.2981 18.9741 0.98223 19.7354C0.666357 20.4968 0.583336 21.3347 0.743666 22.1432C0.903995 22.9517 1.30047 23.6945 1.88297 24.2776C2.46546 24.8608 3.2078 25.2582 4.01612 25.4194C4.82443 25.5807 5.66242 25.4987 6.42411 25.1837C7.18581 24.8687 7.83699 24.3349 8.29532 23.6499C8.75365 22.9648 8.99854 22.1592 8.99902 21.335V8.83496H13.1689ZM13.1689 8.83496C12.3452 8.83496 11.5399 9.07924 10.855 9.5369C10.17 9.99456 9.63619 10.645 9.32095 11.4061C9.00571 12.1672 8.92323 13.0046 9.08394 13.8126C9.24465 14.6205 9.64133 15.3626 10.2238 15.9451C10.8063 16.5276 11.5484 16.9243 12.3564 17.085C13.1643 17.2457 14.0018 17.1632 14.7628 16.848C15.5239 16.5328 16.1744 15.9989 16.632 15.314C17.0897 14.629 17.334 13.8238 17.334 13C17.3339 11.8954 16.895 10.8361 16.1139 10.055C15.3329 9.27395 14.2735 8.83509 13.1689 8.83496Z" fill="white"/>
</svg>
