<svg width="30" height="31" viewBox="0 0 30 31" fill="none" xmlns="http://www.w3.org/2000/svg">
<path d="M29.6168 19.376L26.9253 17.8881C27.197 16.4849 27.197 15.0454 26.9253 13.6422L29.6168 12.1543C29.9264 11.9849 30.0654 11.6341 29.9643 11.3075C29.263 9.15427 28.0689 7.2067 26.5083 5.58573C26.2682 5.33775 25.8765 5.27727 25.5732 5.44662L22.8816 6.93452C21.7507 6.00307 20.4491 5.28332 19.0402 4.81154V1.8418C19.0402 1.50309 18.7938 1.20672 18.4463 1.13414C16.1275 0.638172 13.7519 0.662365 11.5468 1.13414C11.1993 1.20672 10.9529 1.50309 10.9529 1.8418V4.81759C9.5503 5.29541 8.24876 6.01517 7.11149 6.94057L4.42627 5.45267C4.11668 5.28332 3.73127 5.33775 3.49118 5.59178C1.93059 7.2067 0.736454 9.15427 0.0351366 11.3135C-0.0722723 11.6401 0.0730456 11.991 0.382636 12.1603L3.07418 13.6482C2.8025 15.0514 2.8025 16.4909 3.07418 17.8942L0.382636 19.3821C0.0730456 19.5514 -0.0659542 19.9022 0.0351366 20.2288C0.736454 22.382 1.93059 24.3296 3.49118 25.9506C3.73127 26.1986 4.12299 26.259 4.42627 26.0897L7.11781 24.6018C8.24876 25.5332 9.5503 26.253 10.9593 26.7248V29.7006C10.9593 30.0393 11.2057 30.3356 11.5532 30.4082C13.8719 30.9042 16.2476 30.88 18.4526 30.4082C18.8001 30.3356 19.0465 30.0393 19.0465 29.7006V26.7248C20.4492 26.2469 21.7507 25.5272 22.888 24.6018L25.5795 26.0897C25.8891 26.259 26.2745 26.2046 26.5146 25.9506C28.0752 24.3357 29.2693 22.3881 29.9706 20.2288C30.0654 19.8962 29.9264 19.5454 29.6168 19.376ZM14.9966 20.6038C12.2103 20.6038 9.94203 18.4325 9.94203 15.7651C9.94203 13.0978 12.2103 10.9264 14.9966 10.9264C17.7829 10.9264 20.0511 13.0978 20.0511 15.7651C20.0511 18.4325 17.7829 20.6038 14.9966 20.6038Z" fill="#A45FE6"/>
</svg>
