<svg width="38" height="31" viewBox="0 0 38 31" fill="none" xmlns="http://www.w3.org/2000/svg">
<path d="M18.4962 7.99665L6.33383 18.1663V29.1423C6.33383 29.4265 6.44504 29.6991 6.64298 29.9C6.84092 30.101 7.10938 30.2139 7.38931 30.2139L14.7816 30.1944C15.0606 30.193 15.3277 30.0795 15.5245 29.8787C15.7213 29.6779 15.8318 29.4062 15.8318 29.1229V22.713C15.8318 22.4288 15.943 22.1563 16.1409 21.9553C16.3389 21.7544 16.6073 21.6415 16.8873 21.6415H21.1092C21.3891 21.6415 21.6575 21.7544 21.8555 21.9553C22.0534 22.1563 22.1646 22.4288 22.1646 22.713V29.1182C22.1642 29.2592 22.1912 29.3989 22.244 29.5293C22.2969 29.6597 22.3745 29.7782 22.4726 29.8781C22.5707 29.9779 22.6872 30.0572 22.8154 30.1112C22.9437 30.1653 23.0812 30.1931 23.2201 30.1931L30.6097 30.2139C30.8897 30.2139 31.1581 30.101 31.3561 29.9C31.554 29.6991 31.6652 29.4265 31.6652 29.1423V18.159L19.5055 7.99665C19.3625 7.87967 19.1845 7.81588 19.0008 7.81588C18.8172 7.81588 18.6391 7.87967 18.4962 7.99665ZM37.7078 14.9088L32.193 10.2938V1.01753C32.193 0.804384 32.1096 0.59997 31.9611 0.449254C31.8126 0.298539 31.6113 0.213867 31.4013 0.213867H27.7072C27.4972 0.213867 27.2959 0.298539 27.1474 0.449254C26.999 0.59997 26.9156 0.804384 26.9156 1.01753V5.88035L21.0095 0.947208C20.4428 0.473704 19.7316 0.214814 18.9975 0.214814C18.2635 0.214814 17.5523 0.473704 16.9855 0.947208L0.287286 14.9088C0.207128 14.9761 0.140809 15.0587 0.0921204 15.152C0.0434314 15.2453 0.0133259 15.3474 0.00352407 15.4525C-0.00627773 15.5576 0.00441628 15.6637 0.0349951 15.7646C0.0655738 15.8655 0.115438 15.9593 0.181739 16.0406L1.8639 18.1168C1.93002 18.1984 2.01135 18.266 2.10323 18.3156C2.19511 18.3653 2.29574 18.3961 2.39935 18.4062C2.50297 18.4164 2.60753 18.4057 2.70707 18.3747C2.8066 18.3438 2.89915 18.2932 2.97941 18.2259L18.4962 5.25081C18.6391 5.13383 18.8172 5.07004 19.0008 5.07004C19.1845 5.07004 19.3625 5.13383 19.5055 5.25081L35.0229 18.2259C35.1031 18.2932 35.1955 18.3439 35.2949 18.3749C35.3943 18.4059 35.4987 18.4168 35.6022 18.4069C35.7058 18.3969 35.8064 18.3663 35.8982 18.3169C35.9901 18.2675 36.0715 18.2001 36.1378 18.1188L37.82 16.0426C37.8862 15.9608 37.9358 15.8665 37.9661 15.7652C37.9963 15.6638 38.0065 15.5574 37.996 15.4521C37.9856 15.3467 37.9548 15.2445 37.9053 15.1512C37.8559 15.058 37.7887 14.9756 37.7078 14.9088Z" fill="#A45FE6"/>
</svg>
