<svg width="24" height="23" viewBox="0 0 24 23" fill="none" xmlns="http://www.w3.org/2000/svg">
<path d="M12.3056 0.601257C5.89385 0.601257 0.695312 5.57871 0.695312 11.7137C0.695312 17.8524 5.89385 22.8262 12.3056 22.8262C18.7173 22.8262 23.9158 17.8524 23.9158 11.7137C23.9158 5.57871 18.7173 0.601257 12.3056 0.601257ZM12.3056 5.53018C13.3915 5.53018 14.2718 6.37276 14.2718 7.41213C14.2718 8.45151 13.3915 9.29409 12.3056 9.29409C11.2196 9.29409 10.3393 8.45151 10.3393 7.41213C10.3393 6.37276 11.2196 5.53018 12.3056 5.53018ZM14.9272 16.9115C14.9272 17.2085 14.6757 17.4492 14.3655 17.4492H10.2457C9.93544 17.4492 9.6839 17.2085 9.6839 16.9115V15.8361C9.6839 15.5392 9.93544 15.2984 10.2457 15.2984H10.8075V12.4307H10.2457C9.93544 12.4307 9.6839 12.1899 9.6839 11.893V10.8176C9.6839 10.5206 9.93544 10.2799 10.2457 10.2799H13.2419C13.5521 10.2799 13.8037 10.5206 13.8037 10.8176V15.2984H14.3655C14.6757 15.2984 14.9272 15.5392 14.9272 15.8361V16.9115Z" fill="white"/>
</svg>
