<svg width="25" height="23" viewBox="0 0 25 23" fill="none" xmlns="http://www.w3.org/2000/svg">
<path d="M17.8345 5.64234C16.3709 4.33071 14.4716 3.61172 12.4567 3.61342C8.83042 3.61647 5.69986 5.99624 4.83551 9.29737C4.77259 9.53767 4.5489 9.70736 4.29006 9.70736H1.60739C1.25636 9.70736 0.989702 9.40235 1.05464 9.07216C2.06758 3.92367 6.79034 0.0287476 12.4638 0.0287476C15.5746 0.0287476 18.3996 1.19986 20.484 3.10641L22.156 1.50608C22.8638 0.828622 24.074 1.30843 24.074 2.26652V8.27349C24.074 8.86743 23.571 9.3489 22.9505 9.3489H16.6744C15.6734 9.3489 15.1721 8.19055 15.8799 7.51305L17.8345 5.64234ZM1.97709 12.9336H8.25314C9.25415 12.9336 9.75545 14.0919 9.04765 14.7694L7.0931 16.6402C8.55664 17.9518 10.4561 18.6708 12.4711 18.6691C16.0955 18.666 19.2273 16.2878 20.092 12.9852C20.155 12.7449 20.3787 12.5752 20.6375 12.5752H23.3202C23.6712 12.5752 23.9379 12.8802 23.873 13.2104C22.86 18.3588 18.1372 22.2537 12.4638 22.2537C9.35298 22.2537 6.52798 21.0826 4.44357 19.1761L2.77155 20.7764C2.06375 21.4538 0.853516 20.974 0.853516 20.0159V14.009C0.853516 13.415 1.35655 12.9336 1.97709 12.9336Z" fill="white"/>
</svg>
