<svg width="30" height="31" viewBox="0 0 30 31" fill="none" xmlns="http://www.w3.org/2000/svg">
<path d="M7.5 4.21387H2.875V8.83887H7.5" fill="#A45FE6"/>
<path d="M28.25 3.08887H12V4.21387H28.25V3.08887Z" fill="#A45FE6"/>
<path d="M28.25 5.96387H12V7.08887H28.25V5.96387Z" fill="#A45FE6"/>
<path d="M19.625 8.83887H12V9.96387H19.625V8.83887Z" fill="#A45FE6"/>
<path d="M2.875 18.2139H7.5V13.5889H2.875V18.2139Z" fill="#A45FE6"/>
<path d="M28.25 12.3389H12V13.4639H28.25V12.3389Z" fill="#A45FE6"/>
<path d="M28.25 15.2139H12V16.3389H28.25V15.2139Z" fill="#A45FE6"/>
<path d="M19.625 18.2139H12V19.3389H19.625V18.2139Z" fill="#A45FE6"/>
<path d="M2.875 27.4639H7.5V22.8389H2.875V27.4639Z" fill="#A45FE6"/>
<path d="M28.25 21.7139H12V22.8389H28.25V21.7139Z" fill="#A45FE6"/>
<path d="M28.25 24.5889H12V25.7139H28.25V24.5889Z" fill="#A45FE6"/>
<path d="M19.625 27.4639H12V28.5889H19.625V27.4639Z" fill="#A45FE6"/>
</svg>
