<svg width="23" height="31" viewBox="0 0 23 31" fill="none" xmlns="http://www.w3.org/2000/svg">
<path d="M10.3181 30.1085C1.61539 17.7663 0 16.4997 0 11.9637C0 5.75052 5.14871 0.713745 11.5 0.713745C17.8513 0.713745 23 5.75052 23 11.9637C23 16.4997 21.3846 17.7663 12.6819 30.1085C12.1108 30.9155 10.8892 30.9155 10.3181 30.1085ZM11.5 16.6512C14.1464 16.6512 16.2917 14.5526 16.2917 11.9637C16.2917 9.3749 14.1464 7.27624 11.5 7.27624C8.85362 7.27624 6.70833 9.3749 6.70833 11.9637C6.70833 14.5526 8.85362 16.6512 11.5 16.6512Z" fill="#A45FE6"/>
</svg>
