<svg width="30" height="31" viewBox="0 0 30 31" fill="none" xmlns="http://www.w3.org/2000/svg">
<path d="M9.78672 18.3966C7.43599 18.5477 5.30263 19.4431 4.09211 22.6329C3.95442 22.9968 3.62337 23.2177 3.23724 23.2177C2.58628 23.2177 0.573622 21.5964 0 21.205C0.000585926 26.0302 2.223 30.2712 7.50044 30.2712C11.9453 30.2712 15.0003 27.7065 15.0003 23.2288C15.0003 23.0466 14.9622 22.8725 14.9435 22.6938L9.78672 18.3966ZM26.8296 0.271179C25.9413 0.271179 25.1087 0.664343 24.4735 1.23505C12.4966 11.9343 11.2504 12.1856 11.2504 15.335C11.2504 16.1378 11.4408 16.903 11.7619 17.6026L15.5013 20.7186C15.9237 20.8241 16.3591 20.8962 16.8131 20.8962C20.4523 20.8962 22.5617 18.2319 29.1856 5.86923C29.618 5.02841 30 4.1202 30 3.1745C30 1.48055 28.4766 0.271179 26.8296 0.271179Z" fill="#A45FE6"/>
</svg>
