<svg width="30" height="31" viewBox="0 0 30 31" fill="none" xmlns="http://www.w3.org/2000/svg">
<path d="M11.625 14.3387L10.875 15.0887L9.25 16.7137L9 16.9637L7 18.9637L6.375 19.5887C7.375 19.5887 8.375 19.9637 9.125 20.7137C9.875 21.4637 10.25 22.4637 10.25 23.4637L15.625 18.2137C16.75 17.0887 16.75 15.3387 15.625 14.3387C14.5 13.2137 12.75 13.2137 11.625 14.3387Z" fill="#A45FE6"/>
<path d="M4.5 21.4637C4.5 21.5887 4.375 21.5887 4.25 21.7137C4.25 21.7137 4.25 21.8387 4.125 21.8387L3.125 24.5887L2.75 25.5887L2.5 26.4637L5 23.9637C5 23.9637 5 23.9637 5 23.8387C5 23.3387 5.375 22.9637 5.875 22.9637C6.375 22.9637 6.75 23.3387 6.75 23.8387C6.75 24.3387 6.375 24.7137 5.875 24.7137C5.875 24.7137 5.875 24.7137 5.75 24.7137L3.25 27.2137L4.5 26.7137L5.25 26.4637L8.125 25.4637C8.125 25.4637 8.125 25.3387 8.25 25.3387C8.25 25.3387 8.375 25.3387 8.375 25.2137C8.375 25.2137 8.5 25.2137 8.5 25.0887C9.5 23.9637 9.5 22.3387 8.375 21.2137C7.25 20.4637 5.5 20.4637 4.5 21.4637Z" fill="#A45FE6"/>
<path d="M25.75 4.08875C24.75 3.08875 22.875 3.08875 21.75 4.08875L19 6.83875C19 6.96375 18.875 7.08874 18.75 7.21374C18.625 7.33874 18.375 7.46374 18.25 7.71374L18 7.96375L16.375 9.46375L15.875 9.96375L14.125 11.7137L13.625 12.2137C14.625 12.2137 15.625 12.5887 16.375 13.3387C17.125 14.0887 17.5 15.0887 17.5 16.0887L21.875 11.5887L22.125 11.3387C22.25 11.2137 22.375 10.9637 22.5 10.8387C22.625 10.7137 22.75 10.5887 22.875 10.5887L25.625 7.83874C26.75 6.96374 26.75 5.21375 25.75 4.08875ZM22.25 6.83875C22.125 7.08875 21.875 7.21374 21.75 7.21374C21.625 7.21374 21.625 7.21374 21.5 7.21374C21.25 7.08874 20.875 6.96374 20.625 6.96374C20.375 6.96374 20.125 6.71374 20.125 6.33874C20.125 6.08874 20.375 5.83874 20.75 5.83874C21.125 5.83874 21.625 6.08875 22 6.21375C22.25 6.21375 22.25 6.58875 22.25 6.83875ZM23.625 9.71374C23.25 9.71374 23 9.58875 23 9.21375C23 8.96375 22.875 8.58874 22.75 8.33874C22.625 8.08874 22.75 7.71374 23 7.58874C23.25 7.46374 23.625 7.58874 23.75 7.83874C23.875 8.21374 24 8.58874 24.125 9.08874C24.125 9.46375 23.875 9.71374 23.625 9.71374Z" fill="#A45FE6"/>
<path d="M17.25 3.71375L18.5 4.96375L19.25 4.08875L18 2.83875C17.625 2.46375 16.75 2.46375 16.375 2.83875L10.375 8.96375L11.25 9.71374L17.25 3.71375Z" fill="#A45FE6"/>
<path d="M25.125 16.2137H22.375C22.125 16.2137 21.75 16.4637 21.75 16.8387C21.75 17.0887 22 17.3387 22.375 17.3387H25.125C25.875 17.3387 26.5 17.9637 26.5 18.8387C26.5 19.5887 25.875 20.2137 25.125 20.2137H20H17.75C16.375 20.2137 15.25 21.3387 15.25 22.7137C15.25 24.0887 16.375 25.2137 17.75 25.2137H18.375H21.125C21.875 25.2137 22.5 25.8387 22.5 26.5887C22.5 27.3387 21.875 27.9637 21.125 27.9637H8.625C8.375 27.9637 8 28.2137 8 28.5887C8 28.9637 8.25 29.2137 8.625 29.2137H21C22.375 29.2137 23.5 28.0887 23.5 26.7137C23.5 25.3387 22.375 24.2137 21 24.2137H20.25H17.5C16.75 24.2137 16.125 23.5887 16.125 22.8387C16.125 21.9637 16.75 21.4637 17.5 21.4637H22.625H24.875C26.25 21.4637 27.375 20.3387 27.375 18.9637C27.625 17.3387 26.5 16.2137 25.125 16.2137Z" fill="#A45FE6"/>
<path d="M5.25 28.0887H5.125C4.875 28.0887 4.5 28.3387 4.5 28.7137C4.5 29.0887 4.75 29.3387 5.125 29.3387H5.375C5.625 29.3387 6 29.0887 6 28.7137C5.875 28.4637 5.625 28.0887 5.25 28.0887Z" fill="#A45FE6"/>
<path d="M7 28.0887H6.875C6.5 28.0887 6.25 28.3387 6.25 28.7137C6.25 29.0887 6.5 29.3387 6.875 29.3387H7.125C7.5 29.3387 7.75 29.0887 7.75 28.7137C7.625 28.4637 7.375 28.0887 7 28.0887Z" fill="#A45FE6"/>
</svg>
