<svg width="30" height="31" viewBox="0 0 30 31" fill="none" xmlns="http://www.w3.org/2000/svg">
<path d="M15 0.713867C6.71371 0.713867 0 7.42758 0 15.7139C0 24.0002 6.71371 30.7139 15 30.7139C23.2863 30.7139 30 24.0002 30 15.7139C30 7.42758 23.2863 0.713867 15 0.713867ZM23.7097 17.4074C23.7097 17.8066 23.3831 18.1332 22.9839 18.1332H17.4194V23.6977C17.4194 24.0969 17.0927 24.4235 16.6935 24.4235H13.3065C12.9073 24.4235 12.5806 24.0969 12.5806 23.6977V18.1332H7.01613C6.61694 18.1332 6.29032 17.8066 6.29032 17.4074V14.0203C6.29032 13.6211 6.61694 13.2945 7.01613 13.2945H12.5806V7.73C12.5806 7.3308 12.9073 7.00419 13.3065 7.00419H16.6935C17.0927 7.00419 17.4194 7.3308 17.4194 7.73V13.2945H22.9839C23.3831 13.2945 23.7097 13.6211 23.7097 14.0203V17.4074Z" fill="#A45FE6"/>
</svg>
