<svg width="38" height="31" viewBox="0 0 38 31" fill="none" xmlns="http://www.w3.org/2000/svg">
<path d="M34.4375 15.2139H28.5V10.9282C28.5 8.56431 30.6301 6.64244 33.25 6.64244H33.8438C34.8309 6.64244 35.625 5.92592 35.625 5.0353V1.82101C35.625 0.930385 34.8309 0.213867 33.8438 0.213867H33.25C26.6891 0.213867 21.375 5.00851 21.375 10.9282V26.9996C21.375 28.7741 22.9707 30.2139 24.9375 30.2139H34.4375C36.4043 30.2139 38 28.7741 38 26.9996V18.4282C38 16.6536 36.4043 15.2139 34.4375 15.2139ZM13.0625 15.2139H7.125V10.9282C7.125 8.56431 9.25508 6.64244 11.875 6.64244H12.4688C13.4559 6.64244 14.25 5.92592 14.25 5.0353V1.82101C14.25 0.930385 13.4559 0.213867 12.4688 0.213867H11.875C5.31406 0.213867 0 5.00851 0 10.9282V26.9996C0 28.7741 1.5957 30.2139 3.5625 30.2139H13.0625C15.0293 30.2139 16.625 28.7741 16.625 26.9996V18.4282C16.625 16.6536 15.0293 15.2139 13.0625 15.2139Z" fill="#A45FE6"/>
</svg>
