<svg width="30" height="31" viewBox="0 0 30 31" fill="none" xmlns="http://www.w3.org/2000/svg">
<path d="M22.125 2.21387H7.625C4.625 2.21387 2.25 4.71387 2.25 7.71387V22.9639C2.25 23.5889 2.5 24.0889 3 24.4639L9 28.8389C9.25 29.0889 9.625 29.2139 10 29.2139C10.375 29.2139 10.75 29.0889 11.125 28.8389L17.125 24.4639C17.625 24.0889 17.875 23.5889 17.875 22.9639V20.3389H24.25C26.125 20.3389 27.625 18.8389 27.625 16.9639V7.58887C27.5 4.71387 25.125 2.21387 22.125 2.21387ZM16.625 22.8389C16.625 23.0889 16.5 23.2139 16.375 23.3389L10.375 27.8389C10.125 27.9639 9.75 27.9639 9.625 27.8389L3.625 23.3389C3.5 23.2139 3.375 23.0889 3.375 22.8389V7.58887C3.375 5.21387 5.375 3.21387 7.75 3.21387H18.75C18.625 3.33887 18.375 3.46387 18.25 3.71387C18.25 3.71387 18.25 3.83887 18.125 3.83887C17.875 4.08887 17.75 4.21387 17.625 4.46387C17.625 4.46387 17.625 4.46387 17.625 4.58887C17.375 4.83887 17.25 5.08887 17.125 5.46387V5.58887C17 5.83887 16.875 6.21387 16.875 6.46387V6.58887C16.75 6.96387 16.75 7.21387 16.75 7.58887V19.5889V22.8389H16.625Z" fill="#A45FE6"/>
</svg>
