<svg width="30" height="31" viewBox="0 0 30 31" fill="none" xmlns="http://www.w3.org/2000/svg">
<path d="M15 0.713867C23.2863 0.713867 30 7.42758 30 15.7139C30 24.0002 23.2863 30.7139 15 30.7139C6.71371 30.7139 0 24.0002 0 15.7139C0 7.42758 6.71371 0.713867 15 0.713867ZM21.8891 14.6856L13.6935 6.49008C13.125 5.92153 12.2056 5.92153 11.6431 6.49008L10.6149 7.5183C10.0464 8.08685 10.0464 9.00621 10.6149 9.56871L16.7601 15.7139L10.6149 21.859C10.0464 22.4276 10.0464 23.3469 10.6149 23.9094L11.6431 24.9377C12.2117 25.5062 13.131 25.5062 13.6935 24.9377L21.8891 16.7421C22.4577 16.1735 22.4577 15.2542 21.8891 14.6856Z" fill="#A45FE6"/>
</svg>
