<svg width="38" height="31" viewBox="0 0 38 31" fill="none" xmlns="http://www.w3.org/2000/svg">
<path d="M38 1.65172V29.7726C38 30.2881 37.5992 30.7099 37.1094 30.7099H34.1406C33.6508 30.7099 33.25 30.2881 33.25 29.7726V17.9071L20.5215 30.1319C18.9926 31.4754 16.625 30.3506 16.625 28.2103V17.9071L3.89648 30.1319C2.36758 31.4754 0 30.3506 0 28.2103V3.21399C0 1.07368 2.36758 -0.0433373 3.89648 1.2924L16.625 13.4312V3.21399C16.625 1.07368 18.9926 -0.0433373 20.5215 1.2924L33.25 13.4312V1.65172C33.25 1.13618 33.6508 0.714363 34.1406 0.714363H37.1094C37.5992 0.714363 38 1.13618 38 1.65172Z" fill="#A45FE6"/>
</svg>
