<svg width="38" height="31" viewBox="0 0 38 31" fill="none" xmlns="http://www.w3.org/2000/svg">
<path d="M20.055 0.213867H1.05553C0.775585 0.213867 0.507107 0.326749 0.309157 0.527681C0.111207 0.728613 0 1.00114 0 1.2853L0 7.71387C0 7.99803 0.111207 8.27055 0.309157 8.47148C0.507107 8.67241 0.775585 8.7853 1.05553 8.7853H3.16659C3.44653 8.7853 3.71501 8.67241 3.91296 8.47148C4.11091 8.27055 4.22211 7.99803 4.22211 7.71387V5.57101H7.91646V25.9282H5.27764C4.9977 25.9282 4.72922 26.041 4.53127 26.242C4.33332 26.4429 4.22211 26.7154 4.22211 26.9996V29.1424C4.22211 29.4266 4.33332 29.6991 4.53127 29.9001C4.72922 30.101 4.9977 30.2139 5.27764 30.2139H15.8329C16.1129 30.2139 16.3814 30.101 16.5793 29.9001C16.7773 29.6991 16.8885 29.4266 16.8885 29.1424V26.9996C16.8885 26.7154 16.7773 26.4429 16.5793 26.242C16.3814 26.041 16.1129 25.9282 15.8329 25.9282H13.1941V5.57101H16.8885V7.71387C16.8885 7.99803 16.9997 8.27055 17.1976 8.47148C17.3956 8.67241 17.664 8.7853 17.944 8.7853H20.055C20.335 8.7853 20.6035 8.67241 20.8014 8.47148C20.9994 8.27055 21.1106 7.99803 21.1106 7.71387V1.2853C21.1106 1.00114 20.9994 0.728613 20.8014 0.527681C20.6035 0.326749 20.335 0.213867 20.055 0.213867ZM36.9435 22.7139H33.7769V7.71387H36.9435C37.8875 7.71387 38.3507 6.55472 37.6896 5.88507L32.412 0.52793C32.2141 0.32715 31.9457 0.214364 31.6659 0.214364C31.386 0.214364 31.1177 0.32715 30.9197 0.52793L25.6421 5.88507C25.0266 6.50851 25.3564 7.71387 26.3882 7.71387H29.5548V22.7139H26.3882C25.4442 22.7139 24.9817 23.873 25.6421 24.5427L30.9197 29.8998C31.1177 30.1006 31.386 30.2134 31.6659 30.2134C31.9457 30.2134 32.2141 30.1006 32.412 29.8998L37.6896 24.5427C38.3051 23.9192 37.9753 22.7139 36.9435 22.7139Z" fill="#A45FE6"/>
</svg>
