<svg width="30" height="31" viewBox="0 0 30 31" fill="none" xmlns="http://www.w3.org/2000/svg">
<path d="M15 0.85498C6.71371 0.85498 0 7.56869 0 15.855C0 24.1413 6.71371 30.855 15 30.855C23.2863 30.855 30 24.1413 30 15.855C30 7.56869 23.2863 0.85498 15 0.85498Z" fill="#A45FE6"/>
<path d="M17.7418 15.1002C17.7418 16.812 16.4551 18.197 14.8648 18.197C13.2744 18.197 11.9878 16.812 11.9878 15.1002C11.9878 13.3884 13.2744 12.0034 14.8648 12.0034C16.4551 12.0034 17.7418 13.3884 17.7418 15.1002ZM21.8974 12.0034C20.3071 12.0034 19.0204 13.3884 19.0204 15.1002C19.0204 16.812 20.3071 18.197 21.8974 18.197C23.4878 18.197 24.7744 16.812 24.7744 15.1002C24.7744 13.3884 23.4878 12.0034 21.8974 12.0034ZM7.83208 12.0034C6.24174 12.0034 4.95508 13.3884 4.95508 15.1002C4.95508 16.812 6.24174 18.197 7.83208 18.197C9.42242 18.197 10.7091 16.812 10.7091 15.1002C10.7091 13.3884 9.42242 12.0034 7.83208 12.0034Z" fill="white"/>
</svg>
