<svg width="24" height="8" viewBox="0 0 24 8" fill="none" xmlns="http://www.w3.org/2000/svg">
<path d="M15.6986 3.90686C15.6986 5.81836 14.1975 7.36486 12.3421 7.36486C10.4867 7.36486 8.98555 5.81836 8.98555 3.90686C8.98555 1.99535 10.4867 0.448853 12.3421 0.448853C14.1975 0.448853 15.6986 1.99535 15.6986 3.90686ZM20.5468 0.448853C18.6914 0.448853 17.1903 1.99535 17.1903 3.90686C17.1903 5.81836 18.6914 7.36486 20.5468 7.36486C22.4022 7.36486 23.9033 5.81836 23.9033 3.90686C23.9033 1.99535 22.4022 0.448853 20.5468 0.448853ZM4.13727 0.448853C2.28186 0.448853 0.780762 1.99535 0.780762 3.90686C0.780762 5.81836 2.28186 7.36486 4.13727 7.36486C5.99267 7.36486 7.49377 5.81836 7.49377 3.90686C7.49377 1.99535 5.99267 0.448853 4.13727 0.448853Z" fill="black"/>
</svg>
