<svg width="20" height="18" viewBox="0 0 20 18" fill="none" xmlns="http://www.w3.org/2000/svg">
<path d="M2.48268 13.9566C2.28917 13.864 2.19242 13.6788 2.19242 13.5862V2.56634L0.837891 2.38113V14.9753L7.12678 15.9013L2.48268 13.9566Z" fill="white"/>
<path d="M1.80566 17.5682L7.51404 16.7348L1.80566 15.9013V17.5682Z" fill="white"/>
<path d="M3.06348 2.19593V13.3084L10.0296 16.0865V3.58499L3.06348 0.714264V2.19593Z" fill="white"/>
<path d="M17.8665 2.19593V0.714264L10.9004 3.49238V16.0865L17.8665 13.3084V2.19593ZM16.125 11.4563L12.9322 12.7528C12.8354 12.7528 12.8354 12.7528 12.7387 12.7528C12.5452 12.7528 12.4484 12.6602 12.3517 12.475C12.2549 12.2898 12.3517 12.012 12.5452 11.9194L15.738 10.6229C15.9315 10.5303 16.2218 10.6229 16.3185 10.9007C16.4153 11.1785 16.3185 11.4563 16.125 11.4563ZM16.125 9.04863L12.9322 10.3451C12.8354 10.3451 12.8354 10.3451 12.7387 10.3451C12.5452 10.3451 12.4484 10.2525 12.3517 10.0673C12.2549 9.88206 12.3517 9.60425 12.5452 9.51165L15.738 8.21519C15.9315 8.12259 16.2218 8.21519 16.3185 8.4004C16.4153 8.67821 16.3185 8.95602 16.125 9.04863ZM16.125 6.54832L12.9322 7.84477C12.8354 7.84477 12.8354 7.84477 12.7387 7.84477C12.5452 7.84477 12.4484 7.75217 12.3517 7.56696C12.2549 7.38175 12.3517 7.10394 12.5452 7.01134L15.738 5.71488C15.9315 5.62228 16.2218 5.71488 16.3185 5.99269C16.4153 6.27051 16.3185 6.54832 16.125 6.54832ZM16.125 4.14061L12.9322 5.43707C12.8354 5.43707 12.8354 5.43707 12.7387 5.43707C12.5452 5.43707 12.4484 5.34447 12.3517 5.15926C12.2549 4.97405 12.3517 4.69624 12.5452 4.60363L15.738 3.30718C15.9315 3.21457 16.2218 3.30718 16.3185 3.49238C16.4153 3.7702 16.3185 4.04801 16.125 4.14061Z" fill="white"/>
<path d="M19.1244 17.5682V15.9013L13.416 16.7348L19.1244 17.5682Z" fill="white"/>
<path d="M18.7372 2.56634V13.5862C18.7372 13.7714 18.6404 13.864 18.4469 13.9566L13.7061 15.9013L19.9949 14.9753V2.38113L18.7372 2.56634Z" fill="white"/>
</svg>
