<svg width="38" height="31" viewBox="0 0 38 31" fill="none" xmlns="http://www.w3.org/2000/svg">
<path d="M38 16.1825V15.245C38 14.727 37.5749 14.3075 37.05 14.3075H20.425V11.9637H24.7C25.7492 11.9637 26.6 11.1241 26.6 10.0887V2.58875C26.6 1.55339 25.7492 0.713745 24.7 0.713745H13.3C12.2508 0.713745 11.4 1.55339 11.4 2.58875V10.0887C11.4 11.1241 12.2508 11.9637 13.3 11.9637H17.575V14.3075H0.95C0.425125 14.3075 0 14.727 0 15.245V16.1825C0 16.7005 0.425125 17.12 0.95 17.12H7.125V19.4637H3.8C2.75084 19.4637 1.9 20.3034 1.9 21.3387V28.8387C1.9 29.8741 2.75084 30.7137 3.8 30.7137H13.3C14.3492 30.7137 15.2 29.8741 15.2 28.8387V21.3387C15.2 20.3034 14.3492 19.4637 13.3 19.4637H9.975V17.12H28.025V19.4637H24.7C23.6508 19.4637 22.8 20.3034 22.8 21.3387V28.8387C22.8 29.8741 23.6508 30.7137 24.7 30.7137H34.2C35.2492 30.7137 36.1 29.8741 36.1 28.8387V21.3387C36.1 20.3034 35.2492 19.4637 34.2 19.4637H30.875V17.12H37.05C37.5749 17.12 38 16.7005 38 16.1825ZM15.2 8.21375V4.46375H22.8V8.21375H15.2ZM11.4 26.9637H5.7V23.2137H11.4V26.9637ZM32.3 26.9637H26.6V23.2137H32.3V26.9637Z" fill="#A45FE6"/>
</svg>
