<svg width="25" height="23" viewBox="0 0 25 23" fill="none" xmlns="http://www.w3.org/2000/svg">
<path d="M8.50185 13.4566C6.68234 13.5686 5.03109 14.2319 4.09412 16.595C3.98754 16.8646 3.73131 17.0282 3.43244 17.0282C2.92858 17.0282 1.37075 15.8271 0.926758 15.5372C0.927211 19.1118 2.6474 22.2537 6.73223 22.2537C10.1726 22.2537 12.5372 20.3537 12.5372 17.0365C12.5372 16.9015 12.5078 16.7726 12.4933 16.6402L8.50185 13.4566ZM21.6933 0.0287476C21.0058 0.0287476 20.3613 0.320016 19.8697 0.742812C10.5994 8.66914 9.63474 8.85536 9.63474 11.1885C9.63474 11.7832 9.78213 12.3501 10.0307 12.8684L12.925 15.1769C13.252 15.255 13.589 15.3084 13.9404 15.3084C16.7572 15.3084 18.3899 13.3346 23.5169 4.17596C23.8516 3.55305 24.1473 2.88023 24.1473 2.17962C24.1473 0.924692 22.9681 0.0287476 21.6933 0.0287476Z" fill="white"/>
</svg>
