<svg width="100" height="100" viewBox="0 0 100 100" fill="none" xmlns="http://www.w3.org/2000/svg">
<path d="M90.2505 43.4936L86.1672 60.9103C82.6672 75.9519 75.7505 82.0353 62.7505 80.7853C60.6672 80.6186 58.4172 80.2436 56.0005 79.6603L49.0005 77.9936C31.6254 73.8686 26.2504 65.2853 30.3338 47.8686L34.4171 30.4104C35.2504 26.8688 36.2504 23.7854 37.5004 21.2438C42.3755 11.1604 50.6672 8.4521 64.5838 11.7438L71.5422 13.3688C89.0005 17.4521 94.3338 26.0771 90.2505 43.4936Z" stroke="white" stroke-width="1.5" stroke-linecap="round" stroke-linejoin="round"/>
<path opacity="0.4" d="M62.7437 80.7982C60.1603 82.5482 56.9103 84.0065 52.952 85.2982L46.3687 87.4648C29.8269 92.7982 21.1186 88.3398 15.7436 71.7982L10.4103 55.3398C5.07694 38.798 9.49361 30.048 26.0353 24.7147L32.6186 22.548C34.3269 22.0063 35.9519 21.548 37.4936 21.2563C36.2436 23.798 35.2436 26.8813 34.4103 30.423L30.3269 47.8815C26.2436 65.2982 31.6186 73.8815 48.9937 78.0065L55.9937 79.6732C58.4103 80.2565 60.6603 80.6315 62.7437 80.7982Z" stroke="white" stroke-width="1.5" stroke-linecap="round" stroke-linejoin="round"/>
<path opacity="0.4" d="M52.6689 35.5469L72.8773 40.6719" stroke="#96A5B4" stroke-width="1.5" stroke-linecap="round" stroke-linejoin="round"/>
<path opacity="0.4" d="M48.584 51.6602L60.6673 54.7435" stroke="#96A5B4" stroke-width="1.5" stroke-linecap="round" stroke-linejoin="round"/>
</svg>
