<svg width="100" height="100" viewBox="0 0 100 100" fill="none" xmlns="http://www.w3.org/2000/svg">
<path d="M91.5413 76.3752C91.5413 77.8752 91.208 79.4168 90.4997 80.9168C89.7913 82.4168 88.8747 83.8335 87.6663 85.1668C85.6247 87.4168 83.3747 89.0418 80.833 90.0835C78.333 91.1252 75.6247 91.6668 72.708 91.6668C68.458 91.6668 63.9163 90.6668 59.1247 88.6252C54.333 86.5835 49.5413 83.8335 44.7913 80.3752C39.9501 76.8339 35.3817 72.9341 31.1247 68.7085C26.9112 64.4669 23.0251 59.9122 19.4997 55.0835C16.083 50.3335 13.333 45.5835 11.333 40.8752C9.33301 36.1252 8.33301 31.5835 8.33301 27.2502C8.33301 24.4168 8.83301 21.7085 9.83301 19.2085C10.833 16.6668 12.4163 14.3335 14.6247 12.2502C17.2913 9.62516 20.208 8.3335 23.2913 8.3335C24.458 8.3335 25.6247 8.5835 26.6663 9.0835C27.7497 9.5835 28.708 10.3335 29.458 11.4168L39.1247 25.0418C39.8747 26.0835 40.4163 27.0418 40.7913 27.9585C41.1663 28.8335 41.3747 29.7085 41.3747 30.5002C41.3747 31.5002 41.083 32.5002 40.4997 33.4585C39.958 34.4168 39.1663 35.4168 38.1663 36.4168L34.9997 39.7085C34.5413 40.1668 34.333 40.7085 34.333 41.3752C34.333 41.7085 34.3747 42.0002 34.458 42.3335C34.583 42.6668 34.708 42.9168 34.7913 43.1668C35.5413 44.5418 36.833 46.3335 38.6663 48.5002C40.5413 50.6668 42.5413 52.8752 44.708 55.0835C46.958 57.2918 49.1247 59.3335 51.333 61.2085C53.4997 63.0418 55.2913 64.2918 56.708 65.0418C56.9163 65.1252 57.1663 65.2502 57.458 65.3752C57.7913 65.5002 58.1247 65.5418 58.4997 65.5418C59.208 65.5418 59.7497 65.2918 60.208 64.8335L63.3747 61.7085C64.4163 60.6668 65.4163 59.8752 66.3747 59.3752C67.333 58.7918 68.2913 58.5002 69.333 58.5002C70.1247 58.5002 70.958 58.6668 71.8747 59.0418C72.7913 59.4168 73.7497 59.9585 74.7913 60.6668L88.583 70.4585C89.6663 71.2085 90.4163 72.0835 90.8747 73.1252C91.2913 74.1668 91.5413 75.2085 91.5413 76.3752Z" stroke="white" stroke-width="1.5" stroke-miterlimit="10"/>
<path opacity="0.8" d="M77.0833 37.5002C77.0833 35.0002 75.125 31.1668 72.2083 28.0418C69.5417 25.1668 66 22.9168 62.5 22.9168M91.6667 37.5002C91.6667 21.3752 78.625 8.3335 62.5 8.3335" stroke="#96A5B4" stroke-width="1.5" stroke-linecap="round" stroke-linejoin="round"/>
</svg>
