<svg width="145" height="56" viewBox="0 0 145 56" fill="none" xmlns="http://www.w3.org/2000/svg">
<g filter="url(#filter0_d_340_397738)">
<path d="M92 45.8085V53H1V1H92V8.19149" stroke="#96A5B4" stroke-width="2"/>
</g>
<g filter="url(#filter1_d_340_397738)">
<path d="M36.9756 32.2C37.269 32.2 37.5223 32.3067 37.7356 32.52C37.949 32.7333 38.0556 32.9867 38.0556 33.28V38.92C38.0556 39.2133 37.949 39.4667 37.7356 39.68C37.5223 39.8933 37.269 40 36.9756 40H11.6956C11.4023 40 11.149 39.8933 10.9356 39.68C10.7223 39.4667 10.6156 39.2133 10.6156 38.92V13.08C10.6156 12.7867 10.7223 12.5333 10.9356 12.32C11.149 12.1067 11.4023 12 11.6956 12H36.5756C36.869 12 37.1223 12.1067 37.3356 12.32C37.549 12.5333 37.6556 12.7867 37.6556 13.08V18.72C37.6556 19.0133 37.549 19.2667 37.3356 19.48C37.1223 19.6933 36.869 19.8 36.5756 19.8H21.0156V22.32H34.3756C34.669 22.32 34.9223 22.4267 35.1356 22.64C35.349 22.8533 35.4556 23.1067 35.4556 23.4V28.6C35.4556 28.8933 35.349 29.1467 35.1356 29.36C34.9223 29.5733 34.669 29.68 34.3756 29.68H21.0156V32.2H36.9756ZM71.04 31.8C71.3333 31.8 71.5867 31.9067 71.8 32.12C72.0133 32.3333 72.12 32.5867 72.12 32.88V38.92C72.12 39.2133 72.0133 39.4667 71.8 39.68C71.5867 39.8933 71.3333 40 71.04 40H47.68C47.3867 40 47.1333 39.8933 46.92 39.68C46.7067 39.4667 46.6 39.2133 46.6 38.92V13.08C46.6 12.7867 46.7067 12.5333 46.92 12.32C47.1333 12.1067 47.3867 12 47.68 12H56.32C56.6133 12 56.8667 12.1067 57.08 12.32C57.2933 12.5333 57.4 12.7867 57.4 13.08V31.8H71.04Z" fill="#251732"/>
<path d="M92.0156 40.4C87.5356 40.4 83.9756 39.4267 81.3356 37.48C78.7223 35.5333 77.4156 32.4933 77.4156 28.36V13.08C77.4156 12.7867 77.5223 12.5333 77.7356 12.32C77.949 12.1067 78.2023 12 78.4956 12H86.8556C87.149 12 87.4023 12.1067 87.6156 12.32C87.829 12.5333 87.9356 12.7867 87.9356 13.08V29C87.9356 30.0933 88.2956 30.9333 89.0156 31.52C89.7623 32.1067 90.7623 32.4 92.0156 32.4C93.269 32.4 94.2556 32.1067 94.9756 31.52C95.7223 30.9333 96.0956 30.0933 96.0956 29V13.08C96.0956 12.7867 96.2023 12.5333 96.4156 12.32C96.629 12.1067 96.8823 12 97.1756 12H105.536C105.829 12 106.082 12.1067 106.296 12.32C106.509 12.5333 106.616 12.7867 106.616 13.08V28.36C106.616 32.4933 105.296 35.5333 102.656 37.48C100.042 39.4267 96.4956 40.4 92.0156 40.4ZM140.84 38.68C140.92 38.76 140.96 38.8667 140.96 39C140.96 39.2667 140.867 39.5067 140.68 39.72C140.52 39.9067 140.32 40 140.08 40H131.48C130.76 40 130.213 39.6933 129.84 39.08L125.96 33.12L122.16 39.08C121.76 39.6933 121.213 40 120.52 40H111.88C111.64 40 111.427 39.92 111.24 39.76C111.08 39.5733 111 39.36 111 39.12V39C111 38.8667 111.04 38.76 111.12 38.68L119.96 25.16L112.08 13.32C112 13.2133 111.96 13.0667 111.96 12.88C111.96 12.64 112.04 12.44 112.2 12.28C112.387 12.0933 112.6 12 112.84 12H121.48C122.173 12 122.733 12.3333 123.16 13L126.28 18.12L129.64 12.92C129.827 12.68 130.027 12.4667 130.24 12.28C130.48 12.0933 130.827 12 131.28 12H139.88C140.12 12 140.32 12.0933 140.48 12.28C140.667 12.44 140.76 12.64 140.76 12.88V13C140.76 13.1333 140.72 13.24 140.64 13.32L132.28 25.68L140.84 38.68Z" fill="#51376A"/>
</g>
<defs>
<filter id="filter0_d_340_397738" x="0" y="0" width="95" height="56" filterUnits="userSpaceOnUse" color-interpolation-filters="sRGB">
<feFlood flood-opacity="0" result="BackgroundImageFix"/>
<feColorMatrix in="SourceAlpha" type="matrix" values="0 0 0 0 0 0 0 0 0 0 0 0 0 0 0 0 0 0 127 0" result="hardAlpha"/>
<feOffset dx="2" dy="2"/>
<feComposite in2="hardAlpha" operator="out"/>
<feColorMatrix type="matrix" values="0 0 0 0 0 0 0 0 0 0 0 0 0 0 0 0 0 0 0.25 0"/>
<feBlend mode="normal" in2="BackgroundImageFix" result="effect1_dropShadow_340_397738"/>
<feBlend mode="normal" in="SourceGraphic" in2="effect1_dropShadow_340_397738" result="shape"/>
</filter>
<filter id="filter1_d_340_397738" x="7" y="2" width="138" height="52" filterUnits="userSpaceOnUse" color-interpolation-filters="sRGB">
<feFlood flood-opacity="0" result="BackgroundImageFix"/>
<feColorMatrix in="SourceAlpha" type="matrix" values="0 0 0 0 0 0 0 0 0 0 0 0 0 0 0 0 0 0 127 0" result="hardAlpha"/>
<feOffset dx="2" dy="2"/>
<feComposite in2="hardAlpha" operator="out"/>
<feColorMatrix type="matrix" values="0 0 0 0 0 0 0 0 0 0 0 0 0 0 0 0 0 0 0.25 0"/>
<feBlend mode="normal" in2="BackgroundImageFix" result="effect1_dropShadow_340_397738"/>
<feBlend mode="normal" in="SourceGraphic" in2="effect1_dropShadow_340_397738" result="shape"/>
</filter>
</defs>
</svg>
