<svg width="277" height="76" viewBox="0 0 277 76" fill="none" xmlns="http://www.w3.org/2000/svg">
<g filter="url(#filter0_d_594_1133)">
<path d="M138.5 62.4704V72.209L1.63867 72.2086V1.79102L138.5 1.7914V11.53" stroke="#96A5B4" stroke-width="2"/>
</g>
<g filter="url(#filter1_d_594_1133)">
<path d="M58.5889 44.3C59.0289 44.3 59.4089 44.46 59.7289 44.78C60.0489 45.1 60.2089 45.48 60.2089 45.92V54.38C60.2089 54.82 60.0489 55.2 59.7289 55.52C59.4089 55.84 59.0289 56 58.5889 56H20.6689C20.2289 56 19.8489 55.84 19.5289 55.52C19.2089 55.2 19.0489 54.82 19.0489 54.38V15.62C19.0489 15.18 19.2089 14.8 19.5289 14.48C19.8489 14.16 20.2289 14 20.6689 14H57.9889C58.4289 14 58.8089 14.16 59.1289 14.48C59.4489 14.8 59.6089 15.18 59.6089 15.62V24.08C59.6089 24.52 59.4489 24.9 59.1289 25.22C58.8089 25.54 58.4289 25.7 57.9889 25.7H34.6489V29.48H54.6889C55.1289 29.48 55.5089 29.64 55.8289 29.96C56.1489 30.28 56.3089 30.66 56.3089 31.1V38.9C56.3089 39.34 56.1489 39.72 55.8289 40.04C55.5089 40.36 55.1289 40.52 54.6889 40.52H34.6489V44.3H58.5889ZM109.685 43.7C110.125 43.7 110.505 43.86 110.825 44.18C111.145 44.5 111.305 44.88 111.305 45.32V54.38C111.305 54.82 111.145 55.2 110.825 55.52C110.505 55.84 110.125 56 109.685 56H74.6455C74.2055 56 73.8255 55.84 73.5055 55.52C73.1855 55.2 73.0255 54.82 73.0255 54.38V15.62C73.0255 15.18 73.1855 14.8 73.5055 14.48C73.8255 14.16 74.2055 14 74.6455 14H87.6055C88.0455 14 88.4255 14.16 88.7455 14.48C89.0655 14.8 89.2255 15.18 89.2255 15.62V43.7H109.685Z" fill="#251732"/>
<path d="M140.981 14C147.741 14 153.141 15.46 157.181 18.38C161.261 21.3 163.301 25.82 163.301 31.94V38.06C163.301 44.3 161.281 48.86 157.241 51.74C153.241 54.58 147.821 56 140.981 56H121.841C121.401 56 121.021 55.84 120.701 55.52C120.381 55.2 120.221 54.82 120.221 54.38V15.62C120.221 15.18 120.381 14.8 120.701 14.48C121.021 14.16 121.401 14 121.841 14H140.981ZM141.281 44.3C143.161 44.3 144.641 43.86 145.721 42.98C146.841 42.06 147.401 40.78 147.401 39.14V30.86C147.401 29.22 146.841 27.96 145.721 27.08C144.641 26.16 143.161 25.7 141.281 25.7H135.821V44.3H141.281ZM211.577 44.3C212.017 44.3 212.397 44.46 212.717 44.78C213.037 45.1 213.197 45.48 213.197 45.92V54.38C213.197 54.82 213.037 55.2 212.717 55.52C212.397 55.84 212.017 56 211.577 56H173.657C173.217 56 172.837 55.84 172.517 55.52C172.197 55.2 172.037 54.82 172.037 54.38V15.62C172.037 15.18 172.197 14.8 172.517 14.48C172.837 14.16 173.217 14 173.657 14H210.977C211.417 14 211.797 14.16 212.117 14.48C212.437 14.8 212.597 15.18 212.597 15.62V24.08C212.597 24.52 212.437 24.9 212.117 25.22C211.797 25.54 211.417 25.7 210.977 25.7H187.637V29.48H207.677C208.117 29.48 208.497 29.64 208.817 29.96C209.137 30.28 209.297 30.66 209.297 31.1V38.9C209.297 39.34 209.137 39.72 208.817 40.04C208.497 40.36 208.117 40.52 207.677 40.52H187.637V44.3H211.577ZM265.374 14C265.734 14 266.034 14.14 266.274 14.42C266.554 14.66 266.694 14.96 266.694 15.32L266.634 15.74L252.834 54.02C252.634 54.58 252.314 55.06 251.874 55.46C251.434 55.82 250.854 56 250.134 56H236.154C235.434 56 234.854 55.82 234.414 55.46C233.974 55.06 233.674 54.64 233.514 54.2L219.594 15.74L219.534 15.32C219.534 14.96 219.654 14.66 219.894 14.42C220.174 14.14 220.494 14 220.854 14H233.514C234.234 14 234.814 14.22 235.254 14.66C235.734 15.06 236.054 15.5 236.214 15.98L243.114 38.96L250.014 15.98C250.174 15.46 250.474 15 250.914 14.6C251.354 14.2 251.954 14 252.714 14H265.374Z" fill="#51376A"/>
</g>
<defs>
<filter id="filter0_d_594_1133" x="0.638672" y="0.791016" width="140.861" height="74.418" filterUnits="userSpaceOnUse" color-interpolation-filters="sRGB">
<feFlood flood-opacity="0" result="BackgroundImageFix"/>
<feColorMatrix in="SourceAlpha" type="matrix" values="0 0 0 0 0 0 0 0 0 0 0 0 0 0 0 0 0 0 127 0" result="hardAlpha"/>
<feOffset dx="2" dy="2"/>
<feComposite in2="hardAlpha" operator="out"/>
<feColorMatrix type="matrix" values="0 0 0 0 0 0 0 0 0 0 0 0 0 0 0 0 0 0 0.25 0"/>
<feBlend mode="normal" in2="BackgroundImageFix" result="effect1_dropShadow_594_1133"/>
<feBlend mode="normal" in="SourceGraphic" in2="effect1_dropShadow_594_1133" result="shape"/>
</filter>
<filter id="filter1_d_594_1133" x="13.6255" y="0" width="257" height="76" filterUnits="userSpaceOnUse" color-interpolation-filters="sRGB">
<feFlood flood-opacity="0" result="BackgroundImageFix"/>
<feColorMatrix in="SourceAlpha" type="matrix" values="0 0 0 0 0 0 0 0 0 0 0 0 0 0 0 0 0 0 127 0" result="hardAlpha"/>
<feOffset dx="2" dy="2"/>
<feComposite in2="hardAlpha" operator="out"/>
<feColorMatrix type="matrix" values="0 0 0 0 0 0 0 0 0 0 0 0 0 0 0 0 0 0 0.25 0"/>
<feBlend mode="normal" in2="BackgroundImageFix" result="effect1_dropShadow_594_1133"/>
<feBlend mode="normal" in="SourceGraphic" in2="effect1_dropShadow_594_1133" result="shape"/>
</filter>
</defs>
</svg>
