<svg width="100" height="100" viewBox="0 0 100 100" fill="none" xmlns="http://www.w3.org/2000/svg">
<path d="M33.333 8.3335V20.8335M66.6663 8.3335V20.8335" stroke="white" stroke-width="1.5" stroke-miterlimit="10" stroke-linecap="round" stroke-linejoin="round"/>
<path opacity="0.8" d="M14.583 37.875H85.4163" stroke="#96A5B4" stroke-width="1.5" stroke-miterlimit="10" stroke-linecap="round" stroke-linejoin="round"/>
<path d="M80.0416 65.7001L65.2916 80.4501C64.7083 81.0334 64.1666 82.1168 64.0416 82.9084L63.25 88.5334C62.9583 90.5751 64.375 91.9918 66.4166 91.7001L72.0416 90.9084C72.8333 90.7834 73.9583 90.2418 74.5 89.6584L89.25 74.9084C91.7916 72.3668 93 69.4084 89.25 65.6584C85.5416 61.9501 82.5833 63.1584 80.0416 65.7001Z" stroke="white" stroke-width="1.5" stroke-miterlimit="10" stroke-linecap="round" stroke-linejoin="round"/>
<path d="M77.9167 67.821C79.1667 72.321 82.6667 75.821 87.1667 77.071M50 91.6668H33.3333C18.75 91.6668 12.5 83.3335 12.5 70.8335V35.4168C12.5 22.9168 18.75 14.5835 33.3333 14.5835H66.6667C81.25 14.5835 87.5 22.9168 87.5 35.4168V50.0002" stroke="white" stroke-width="1.5" stroke-miterlimit="10" stroke-linecap="round" stroke-linejoin="round"/>
<path opacity="0.8" d="M49.9792 57.0835H50.0167M34.5625 57.0835H34.6042M34.5625 69.5835H34.6" stroke="#96A5B4" stroke-width="2" stroke-linecap="round" stroke-linejoin="round"/>
</svg>
